<svg xmlns="http://www.w3.org/2000/svg" xmlns:xlink="http://www.w3.org/1999/xlink" width="41" height="41" viewBox="0 0 41 41"><defs><path id="prefix__a" d="M0 0h27.625v18.897H0z"/><path id="prefix__c" d="M.735 0h6.89v18.897H.736z"/><path id="prefix__e" d="M0 40h27.626V0H0z"/><path id="prefix__g" d="M0 40h27.626V0H0z"/><path id="prefix__i" d="M0 40h27.626V0H0z"/><path id="prefix__k" d="M0 40h27.626V0H0z"/><path id="prefix__m" d="M0 40h27.626V0H0z"/><path id="prefix__o" d="M0 40h27.626V0H0z"/><path id="prefix__q" d="M0 40h27.626V0H0z"/><path id="prefix__s" d="M0 40h27.626V0H0z"/><path id="prefix__u" d="M0 40h27.626V0H0z"/><path id="prefix__w" d="M0 40h27.626V0H0z"/><path id="prefix__y" d="M0 40h27.626V0H0z"/></defs><g fill="none" fill-rule="evenodd"><path d="M1 1h40v40H1z"/><g transform="translate(7 1)"><mask id="prefix__b" fill="#fff"><use xlink:href="#prefix__a"/></mask><path fill="#3D5868" fill-rule="nonzero" d="M26.675.454c-.514-.55-1.204-.604-1.802-.143-.969.75-3.919 3.033-8.483 1.55C12.705.662 9.825.404 7.583 1.07c-2.125.63-3.657 2.121-4.557 4.434C.76 7.036-.264 9.485.058 12.6c.253 2.428 1.27 4.762 2.063 6.023a.588.588 0 0 0 .81.185.588.588 0 0 0 .272-.497h18.872a.587.587 0 0 0 1.081.312c.846-1.342 2.028-4.593 2.082-7.722 1.755-2.077 2.22-4.552 2.34-5.865.183-2-.172-3.798-.903-4.582" mask="url(#prefix__b)"/><g transform="translate(20)"><mask id="prefix__d" fill="#fff"><use xlink:href="#prefix__c"/></mask><path fill="#2A434F" fill-rule="nonzero" d="M6.675.454C6.161-.096 5.471-.15 4.873.311c-.147.115-.342.265-.58.432.578.886.843 2.51.68 4.293-.12 1.313-.585 3.788-2.34 5.865-.05 2.91-1.075 5.922-1.898 7.41h1.34a.587.587 0 0 0 1.081.312c.846-1.342 2.03-4.593 2.082-7.722 1.755-2.077 2.22-4.552 2.34-5.865.183-2-.172-3.798-.903-4.582" mask="url(#prefix__d)"/></g><path fill="#F0EEEE" fill-rule="nonzero" d="M16.987 27.809h-8.27a6.48 6.48 0 0 0-6.473 6.474v5.13c0 .325.263.587.586.587h20.045a.586.586 0 0 0 .586-.586v-5.132a6.48 6.48 0 0 0-6.474-6.473"/><path fill="#D9D4D4" fill-rule="nonzero" d="M16.987 27.809h-1.973a6.48 6.48 0 0 1 6.474 6.474v5.13a.586.586 0 0 1-.586.587h1.973a.586.586 0 0 0 .586-.586v-5.132a6.48 6.48 0 0 0-6.474-6.473"/><mask id="prefix__f" fill="#fff"><use xlink:href="#prefix__e"/></mask><path fill="#49B6F2" fill-rule="nonzero" d="M9.564 40h6.577V28.394H9.564z" mask="url(#prefix__f)"/><mask id="prefix__h" fill="#fff"><use xlink:href="#prefix__g"/></mask><path fill="#68C8FC" fill-rule="nonzero" d="M12.852 28.976v2.877l3.29 2.288v-5.746l-3.29.581zM9.563 34.14l3.289-2.287v-2.877l-3.289-.581v5.745z" mask="url(#prefix__h)"/><mask id="prefix__j" fill="#fff"><use xlink:href="#prefix__i"/></mask><path fill="#19303F" fill-rule="nonzero" d="M19.547 34.629a.587.587 0 0 1-.586-.586v-2.825a5.923 5.923 0 0 0-5.917-5.918 5.924 5.924 0 0 0-5.918 5.918v2.432a.586.586 0 1 1-1.172 0v-2.432c0-3.909 3.181-7.09 7.09-7.09 3.91 0 7.09 3.181 7.09 7.09v2.825a.586.586 0 0 1-.587.586" mask="url(#prefix__j)"/><mask id="prefix__l" fill="#fff"><use xlink:href="#prefix__k"/></mask><path fill="#FA9E3E" fill-rule="nonzero" d="M9.563 20.917V28a3.29 3.29 0 0 0 6.578 0v-7.083H9.563zM2.683 17.5H6.54v4.422H2.683a2.211 2.211 0 1 1 0-4.422m20.338 0h-3.857v4.422h3.857a2.211 2.211 0 1 0 0-4.422" mask="url(#prefix__l)"/><mask id="prefix__n" fill="#fff"><use xlink:href="#prefix__m"/></mask><path fill="#FFB56B" fill-rule="nonzero" d="M21.61 12.98v4.947c0 4.841-3.887 8.838-8.728 8.854a8.76 8.76 0 0 1-8.79-8.758V14.6c0-.07.043-.132.107-.16 2.119-.969 2.826-3.48 3.013-5.277.04-.389.055-.743.056-1.041 0-.162.199-.237.306-.117.247.277.63.685 1.133 1.158 2.315 2.174 7.145 5.678 12.669 3.65a.176.176 0 0 1 .235.166" mask="url(#prefix__n)"/><mask id="prefix__p" fill="#fff"><use xlink:href="#prefix__o"/></mask><path fill="#19303F" fill-rule="nonzero" d="M12.852 22.538a3.216 3.216 0 0 1-2.643-1.386.586.586 0 0 1 .963-.667 2.043 2.043 0 0 0 3.36 0 .586.586 0 0 1 .964.667 3.218 3.218 0 0 1-2.644 1.386" mask="url(#prefix__p)"/><mask id="prefix__r" fill="#fff"><use xlink:href="#prefix__q"/></mask><path fill="#EF9245" fill-rule="nonzero" d="M19.788 18.934c0 4.162-3.25 7.6-7.405 7.834.077.005.155.008.232.01h.002c.299.007.598 0 .896-.022l.033-.003c.134-.01.265-.023.397-.04 4.323-.537 7.668-4.223 7.668-8.69v-5.297c-.617.243-1.225.416-1.823.529v5.679z" mask="url(#prefix__r)"/><mask id="prefix__t" fill="#fff"><use xlink:href="#prefix__s"/></mask><path fill="#19303F" fill-rule="nonzero" d="M17.096 18.2a.586.586 0 0 1-.586-.586v-.156a.586.586 0 1 1 1.172 0v.156a.586.586 0 0 1-.586.586m-8.488 0a.586.586 0 0 1-.586-.586v-.156a.587.587 0 0 1 1.172 0v.156a.586.586 0 0 1-.586.586" mask="url(#prefix__t)"/><mask id="prefix__v" fill="#fff"><use xlink:href="#prefix__u"/></mask><path fill="#78D6D1" fill-rule="nonzero" d="M6.54 33.065c-.945 0-1.715.77-1.715 1.716s.77 1.715 1.716 1.715 1.716-.77 1.716-1.715a1.72 1.72 0 0 0-1.716-1.716" mask="url(#prefix__v)"/><mask id="prefix__x" fill="#fff"><use xlink:href="#prefix__w"/></mask><path fill="#304A56" fill-rule="nonzero" d="m12.852 31.853-1.76 1.225a2.44 2.44 0 0 0 3.521 0l-1.76-1.225h-.001z" mask="url(#prefix__x)"/><mask id="prefix__z" fill="#fff"><use xlink:href="#prefix__y"/></mask><path fill="#3D5868" fill-rule="nonzero" d="M12.852 33.828c-.256 0-.502-.039-.733-.112L11.31 40h3.086l-.81-6.284a2.427 2.427 0 0 1-.733.112m8.248 4.535h-.284a.586.586 0 0 1-.302-1.089v-1.679a.968.968 0 0 0-1.935 0v1.68a.588.588 0 0 1-.3 1.088h-.285a.586.586 0 0 1-.586-.586v-2.182a2.14 2.14 0 0 1 4.278 0v2.182a.587.587 0 0 1-.586.586" mask="url(#prefix__z)"/></g></g></svg>